<?xml version="1.0" encoding="UTF-8" standalone="no"?>
<!-- Created with Inkscape (http://www.inkscape.org/) -->

<svg
   xmlns:dc="http://purl.org/dc/elements/1.1/"
   xmlns:cc="http://creativecommons.org/ns#"
   xmlns:rdf="http://www.w3.org/1999/02/22-rdf-syntax-ns#"
   xmlns:svg="http://www.w3.org/2000/svg"
   xmlns="http://www.w3.org/2000/svg"
   xmlns:xlink="http://www.w3.org/1999/xlink"
   xmlns:sodipodi="http://sodipodi.sourceforge.net/DTD/sodipodi-0.dtd"
   xmlns:inkscape="http://www.inkscape.org/namespaces/inkscape"
   width="210mm"
   height="297mm"
   viewBox="0 0 744.09448819 1052.3622047"
   id="svg2"
   version="1.1"
   inkscape:version="0.92.4 (5da689c313, 2019-01-14)"
   inkscape:export-filename="D:\git\hub\img\logo.png"
   inkscape:export-xdpi="20.780001"
   inkscape:export-ydpi="20.780001"
   sodipodi:docname="logo.svg">
  <defs
     id="defs4">
    <linearGradient
       id="linearGradient4592"
       inkscape:collect="always">
      <stop
         id="stop4588"
         offset="0"
         style="stop-color:#10ffb9;stop-opacity:1" />
      <stop
         id="stop4590"
         offset="1"
         style="stop-color:#df71f5;stop-opacity:0.98823529" />
    </linearGradient>
    <marker
       markerWidth="289.86207"
       markerHeight="121.8371"
       refX="144.93104"
       refY="60.918548"
       orient="auto"
       id="marker4450">
      <rect
         transform="matrix(0.92187417,0.38748937,-0.92187417,0.38748937,0,0)"
         style="fill:#f2f2f2;stroke:#939dac;stroke-width:3.08303738;stroke-miterlimit:4;stroke-dasharray:none"
         id="rect4298"
         width="164.06163"
         height="164.06163"
         x="75.182655"
         y="-82.030815"
         ry="15.415187" />
    </marker>
    <linearGradient
       inkscape:collect="always"
       xlink:href="#linearGradient4592"
       id="linearGradient4596"
       x1="324.50685"
       y1="366.61514"
       x2="438.96718"
       y2="366.61514"
       gradientUnits="userSpaceOnUse"
       gradientTransform="translate(-15.892787,-35.83062)" />
  </defs>
  <sodipodi:namedview
     id="base"
     pagecolor="#ffffff"
     bordercolor="#666666"
     borderopacity="1.0"
     inkscape:pageopacity="0.0"
     inkscape:pageshadow="2"
     inkscape:zoom="0.70710678"
     inkscape:cx="572.3629"
     inkscape:cy="776.92995"
     inkscape:document-units="px"
     inkscape:current-layer="layer1"
     showgrid="true"
     inkscape:window-width="1680"
     inkscape:window-height="979"
     inkscape:window-x="-8"
     inkscape:window-y="-8"
     inkscape:window-maximized="1">
    <inkscape:grid
       type="xygrid"
       id="grid4818" />
  </sodipodi:namedview>
  <metadata
     id="metadata7">
    <rdf:RDF>
      <cc:Work
         rdf:about="">
        <dc:format>image/svg+xml</dc:format>
        <dc:type
           rdf:resource="http://purl.org/dc/dcmitype/StillImage" />
        <dc:title />
      </cc:Work>
    </rdf:RDF>
  </metadata>
  <g
     inkscape:label="Layer 1"
     inkscape:groupmode="layer"
     id="layer1">
    <g
       transform="translate(152.95575,-85.331244)"
       id="g4185">
      <path
         style="fill:#2c5aa0;fill-opacity:1;fill-rule:evenodd;stroke:#2c5aa0;stroke-width:6;stroke-linecap:round;stroke-linejoin:round;stroke-miterlimit:4;stroke-dasharray:none;stroke-opacity:1"
         d="m 11.106754,443.94345 127.800676,73.9705 c 5.44119,2.96704 14.57665,3.21636 20.27961,0 L 287.9267,443.4285 c 9.88196,-5.54777 9.88196,-5.49359 9.88196,-19.36301 v -13.81523 -13.81524 c -0.34674,-14.04279 -0.17336,-13.98861 -10.57543,-20.05648 L 159.18704,302.58656 c -7.41921,-3.46154 -13.73511,-3.4574 -20.27961,0 L 10.984164,376.58771 c -9.7086002,6.06787 -10.37147017,6.17682 -10.37147017,19.87287 l 0.0306,13.805 0.0306,13.805 c 0,13.86942 0.0308,13.97837 10.43286017,19.87287 z"
         id="path4187"
         inkscape:connector-curvature="0"
         sodipodi:nodetypes="ccccccccccccccc" />
      <path
         sodipodi:nodetypes="ccccccccc"
         inkscape:connector-curvature="0"
         id="path4189"
         d="m 11.106754,397.94345 127.800676,73.9705 c 5.44119,2.96704 14.57665,3.21636 20.27961,0 L 287.9267,397.4285 c 12.96452,-7.53002 11.78694,-15.00243 -0.69347,-21.04996 L 159.18704,302.58656 c -7.41921,-3.46154 -13.73511,-3.4574 -20.27961,0 L 10.984164,376.58771 c -13.1177002,7.26976 -13.0841902,13.84434 0.12259,21.35574 z"
         style="fill:#f2f2f2;fill-rule:evenodd;stroke:#2c5aa0;stroke-width:6;stroke-linecap:round;stroke-linejoin:round;stroke-miterlimit:4;stroke-dasharray:none;stroke-opacity:1" />
    </g>
    <g
       id="g4163"
       transform="translate(-79.62742,-130.35847)">
      <path
         sodipodi:nodetypes="ccccccccccccccc"
         inkscape:connector-curvature="0"
         id="path4165"
         d="m 243.68992,423.34568 127.80068,73.9705 c 5.44119,2.96704 14.57665,3.21636 20.27961,0 l 128.73966,-74.48545 c 9.88196,-5.54777 9.88196,-5.49359 9.88196,-19.36301 v -13.81523 -13.81524 c -0.34674,-14.04279 -0.17336,-13.98861 -10.57543,-20.05648 L 391.77021,281.98879 c -7.41921,-3.46154 -13.73511,-3.4574 -20.27961,0 l -127.92327,74.00115 c -9.7086,6.06787 -10.37147,6.17682 -10.37147,19.87287 l 0.0306,13.805 0.0306,13.805 c 0,13.86942 0.0308,13.97837 10.43286,19.87287 z"
         style="fill:#2c5aa0;fill-opacity:1;fill-rule:evenodd;stroke:#2c5aa0;stroke-width:6;stroke-linecap:round;stroke-linejoin:round;stroke-miterlimit:4;stroke-dasharray:none;stroke-opacity:1" />
      <path
         style="fill:#f2f2f2;fill-opacity:1;fill-rule:evenodd;stroke:#2c5aa0;stroke-width:6;stroke-linecap:round;stroke-linejoin:round;stroke-miterlimit:4;stroke-dasharray:none;stroke-opacity:1"
         d="m 243.68992,377.34568 127.80068,73.9705 c 5.44119,2.96704 14.57665,3.21636 20.27961,0 l 128.73966,-74.48545 c 12.96452,-7.53002 11.78694,-15.00243 -0.69347,-21.04996 L 391.77021,281.98879 c -7.41921,-3.46154 -13.73511,-3.4574 -20.27961,0 l -127.92327,74.00115 c -13.1177,7.26976 -13.08419,13.84434 0.12259,21.35574 z"
         id="path4167"
         inkscape:connector-curvature="0"
         sodipodi:nodetypes="ccccccccc" />
    </g>
    <g
       transform="translate(-65.56492,-158.48347)"
       id="g4173">
      <path
         style="fill:#2c5aa0;fill-opacity:1;fill-rule:evenodd;stroke:#2c5aa0;stroke-width:6;stroke-linecap:round;stroke-linejoin:round;stroke-miterlimit:4;stroke-dasharray:none;stroke-opacity:1"
         d="m 227.79713,387.51507 127.80068,73.9705 c 5.44119,2.96704 14.57665,3.21636 20.27961,0 l 128.73966,-74.48545 c 9.88196,-5.54777 9.88196,-5.49359 9.88196,-19.36301 v -13.81523 -13.81524 c -0.34674,-14.04279 -0.17336,-13.98861 -10.57543,-20.05648 L 375.87742,246.15818 c -7.41921,-3.46154 -13.73511,-3.4574 -20.27961,0 l -127.92327,74.00115 c -9.7086,6.06787 -10.37147,6.17682 -10.37147,19.87287 l 0.0306,13.805 0.0306,13.805 c 0,13.86942 0.0308,13.97837 10.43286,19.87287 z"
         id="path4175"
         inkscape:connector-curvature="0"
         sodipodi:nodetypes="ccccccccccccccc" />
      <path
         sodipodi:nodetypes="ccccccccc"
         inkscape:connector-curvature="0"
         id="path4177"
         d="m 227.79713,341.51507 127.80068,73.9705 c 5.44119,2.96704 14.57665,3.21636 20.27961,0 l 128.73966,-74.48545 c 12.96452,-7.53002 11.78694,-15.00243 -0.69347,-21.04996 L 375.87742,246.15818 c -7.41921,-3.46154 -13.73511,-3.4574 -20.27961,0 l -127.92327,74.00115 c -13.1177,7.26976 -13.08419,13.84434 0.12259,21.35574 z"
         style="fill:#f2f2f2;fill-rule:evenodd;stroke:#2c5aa0;stroke-width:6;stroke-linecap:round;stroke-linejoin:round;stroke-miterlimit:4;stroke-dasharray:none;stroke-opacity:1" />
      <path
         sodipodi:nodetypes="ccccccccc"
         inkscape:connector-curvature="0"
         id="path4177-3"
         d="m 321.54712,341.51507 34.05069,19.59551 c 5.44119,2.96704 14.57665,3.21635 20.27961,0 l 34.98967,-20.11046 c 12.96452,-7.53002 11.78694,-15.00243 -0.69348,-21.04996 l -34.29619,-19.41698 c -7.41921,-3.46154 -13.73511,-3.4574 -20.27961,0 l -34.17328,19.62615 c -13.1177,7.26976 -13.08419,13.84434 0.12259,21.35574 z"
         style="fill:url(#linearGradient4596);fill-opacity:1;fill-rule:evenodd;stroke:#2c5aa0;stroke-width:6;stroke-linecap:round;stroke-linejoin:round;stroke-miterlimit:4;stroke-dasharray:none;stroke-opacity:1" />
      <path
         style="fill:none;fill-opacity:1;fill-rule:evenodd;stroke:#2c5aa0;stroke-width:9.375;stroke-linecap:round;stroke-linejoin:round;stroke-miterlimit:4;stroke-dasharray:none;stroke-opacity:1"
         d="m 417.12742,331.47068 -41.25,-23.4375 c -7.41921,-3.46154 -13.73511,-3.4574 -20.27961,0 l -41.59539,24.375"
         id="path4834"
         inkscape:connector-curvature="0"
         sodipodi:nodetypes="cccc" />
    </g>
  </g>
</svg>
